g ____01
v 0.303898 0.242516 2.37 0.494118 0.494118 0.52549
v 1.3039 0.242516 2.37 0.494118 0.494118 0.52549
v 1.2739 0.272516 2.4 0.494118 0.494118 0.52549
v 0.333898 0.272516 2.4 0.494118 0.494118 0.52549
v 1.2739 1.21252 2.4 0.494118 0.494118 0.52549
v 0.333898 1.21252 2.4 0.494118 0.494118 0.52549
v 1.3039 1.24252 2.37 0.494118 0.494118 0.52549
v 0.303898 1.24252 2.37 0.494118 0.494118 0.52549
v 0.303898 0.242516 0.4 0.494118 0.494118 0.52549
v 1.3039 0.242516 0.4 0.494118 0.494118 0.52549
v 0.303898 1.24252 0.4 0.494118 0.494118 0.52549
v 1.3039 1.24252 0.4 0.494118 0.494118 0.52549
v 1.4 1.4 0.4 0.494118 0.494118 0.52549
v 0.1 1.4 0.4 0.494118 0.494118 0.52549
v 0.1 0.1 0.4 0.494118 0.494118 0.52549
v 1.4 0.1 0.4 0.494118 0.494118 0.52549
v 0 0 0.3 0.494118 0.494118 0.52549
v 0 1.5 0.3 0.494118 0.494118 0.52549
v 1.5 1.5 0.3 0.494118 0.494118 0.52549
v 1.5 0 0.3 0.494118 0.494118 0.52549
v 0 1.5 0 0.494118 0.494118 0.52549
v 0 0 0 0.494118 0.494118 0.52549
v 1.5 1.5 0 0.494118 0.494118 0.52549
v 1.5 0 0 0.494118 0.494118 0.52549
vn -0 -0.707107 0.707107
vn 0 0 1
vn 0.707107 0 0.707107
vn 0 0.707107 0.707107
vn -0.707107 -0 0.707107
vn 0 -1 0
vn -1 -0 0
vn -0 1 -0
vn 1 0 -0
vn 0 0 1
vn -0.707107 0 0.707107
vn -0 0.707107 0.707107
vn 0 -0.707107 0.707107
vn 0.707107 0 0.707107
vn -1 0 0
vn -0 -0 -1
vn 0 1 0
vn 1 -0 -0
vn -0 -1 -0
vt 0.5 0
vt -0.5 0
vt -0.47 0.0424264
vt 0.47 0.0424264
vt 1.2739 1.21252
vt 0.333898 1.21252
vt 0.333898 0.272516
vt 1.2739 0.272516
vt -0.5 0
vt -0.47 0.0424264
vt 0.47 0.0424264
vt 0.5 0
vt 0.303898 0.0424264
vt 0.333898 0
vt 1.2739 0
vt 1.3039 0.0424264
vt 1.24252 0.0424264
vt 0.242516 0.0424264
vt 0.272516 0
vt 1.21252 0
vt 2 -0.5
vt 2 0.5
vt 0.03 0.5
vt 0.03 -0.5
vt 2 0.5
vt 2 -0.5
vt 0.03 -0.5
vt 0.03 0.5
vt 2 0.5
vt 2 -0.5
vt 0.03 -0.5
vt 0.03 0.5
vt 2 -0.5
vt 2 0.5
vt 0.03 0.5
vt 0.03 -0.5
vt 1.4 1.4
vt 0.1 1.4
vt 0.303898 1.24252
vt 0.1 0.1
vt 0.303898 0.242516
vt 1.4 0.1
vt 1.3039 0.242516
vt 1.3039 1.24252
vt -0.75 0
vt -0.65 0.141421
vt 0.65 0.141421
vt 0.75 0
vt -0.75 0
vt -0.65 0.141421
vt 0.65 0.141421
vt 0.75 0
vt -1.5 0.141421
vt -1.4 -5.88785e-17
vt -0.1 -0
vt -0 0.141421
vt 0 0.141421
vt -1.5 0.141421
vt -1.4 0
vt -0.1 0
vt -0.4 0.75
vt -0.4 -0.75
vt -0.1 -0.75
vt -0.1 0.75
vt 1.5 1.5
vt 1.5 0
vt 0 0
vt 0 1.5
vt -0.4 0.75
vt -0.4 -0.75
vt -0.1 -0.75
vt -0.1 0.75
vt -0.4 -0.75
vt -0.4 0.75
vt -0.1 0.75
vt -0.1 -0.75
vt -0.4 -0.75
vt -0.4 0.75
vt -0.1 0.75
vt -0.1 -0.75
f 1/1/1 2/2/1 3/3/1
f 3/3/1 4/4/1 1/1/1
f 5/5/2 6/6/2 4/7/2
f 4/7/2 3/8/2 5/5/2
f 7/9/3 5/10/3 3/11/3
f 3/11/3 2/12/3 7/9/3
f 8/13/4 6/14/4 5/15/4
f 5/15/4 7/16/4 8/13/4
f 8/17/5 1/18/5 4/19/5
f 4/19/5 6/20/5 8/17/5
f 9/21/6 10/22/6 2/23/6
f 2/23/6 1/24/6 9/21/6
f 11/25/7 9/26/7 1/27/7
f 1/27/7 8/28/7 11/25/7
f 12/29/8 11/30/8 8/31/8
f 8/31/8 7/32/8 12/29/8
f 10/33/9 12/34/9 7/35/9
f 7/35/9 2/36/9 10/33/9
f 13/37/10 14/38/10 11/39/10
f 15/40/10 9/41/10 11/39/10
f 11/39/10 14/38/10 15/40/10
f 16/42/10 10/43/10 9/41/10
f 9/41/10 15/40/10 16/42/10
f 16/42/10 13/37/10 12/44/10
f 12/44/10 10/43/10 16/42/10
f 11/39/10 12/44/10 13/37/10
f 17/45/11 15/46/11 14/47/11
f 14/47/11 18/48/11 17/45/11
f 18/49/12 14/50/12 13/51/12
f 13/51/12 19/52/12 18/49/12
f 20/53/13 16/54/13 15/55/13
f 15/55/13 17/56/13 20/53/13
f 20/57/14 19/58/14 13/59/14
f 13/59/14 16/60/14 20/57/14
f 21/61/15 22/62/15 17/63/15
f 17/63/15 18/64/15 21/61/15
f 23/65/16 24/66/16 22/67/16
f 22/67/16 21/68/16 23/65/16
f 23/69/17 21/70/17 18/71/17
f 18/71/17 19/72/17 23/69/17
f 24/73/18 23/74/18 19/75/18
f 19/75/18 20/76/18 24/73/18
f 22/77/19 24/78/19 20/79/19
f 20/79/19 17/80/19 22/77/19
